# xmcd
# 
# Track frame offsets:
#     150
#     16697
#     31112
#     58022
#     79405
#     93130
#     115097
#     142050
# 
# Disc length: 2028
# 
# Revision: 0
# Processed by: cddbd v1.5.2PL0 Copyright (c) Steve Scherf et al.
# Submitted via: fre:ac v1.0.17
# 
DISCID=5b07ea08
DTITLE=片桐麻美 - 空からの贈りもの
DYEAR=1991
DGENRE=JPop
TTITLE0=青空
TTITLE1=技・策略・不意打・勇気
TTITLE2=砂の物語（昨日・今日・明日）
TTITLE3=港にて
TTITLE4=口笛のうた
TTITLE5=夢の中で
TTITLE6=駅
TTITLE7=空からの贈りもの
EXTD=
EXTT0=
EXTT1=
EXTT2=
EXTT3=
EXTT4=
EXTT5=
EXTT6=
EXTT7=
PLAYORDER=
